<?xml version="1.0" encoding="utf-8"?>
<!-- Generator: Adobe Illustrator 16.0.0, SVG Export Plug-In . SVG Version: 6.00 Build 0)  -->
<!DOCTYPE svg PUBLIC "-//W3C//DTD SVG 1.1//EN" "http://www.w3.org/Graphics/SVG/1.1/DTD/svg11.dtd">
<svg version="1.1" id="Layer_1" xmlns="http://www.w3.org/2000/svg" xmlns:xlink="http://www.w3.org/1999/xlink" x="0px" y="0px"
	 width="43px" height="43px" viewBox="0 0 43 43" enable-background="new 0 0 43 43" xml:space="preserve">
<path fill-rule="evenodd" clip-rule="evenodd" fill="#33CC33" d="M39.459,17.962c0,5.421-2.404,10.279-6.204,13.57L21.998,42.787
	c-0.28,0.283-0.736,0.283-1.02,0L9.587,31.396c-0.539-0.477-1.046-0.983-1.524-1.521l-0.088-0.087l0.007-0.009
	c-3.166-3.614-4.908-8.509-4.333-13.809c0.89-8.269,7.525-14.934,15.79-15.854C30.281-1.09,39.459,7.365,39.459,17.962
	L39.459,17.962z M28.07,16.783L28.07,16.783c1.842-2.22,1.604-4.571,1.472-5.29c-0.247-1.338-1.138-3.164-3.295-4.405
	c-1.559-0.849-3.661-0.914-5.164-0.914h-0.456c-0.195,0-0.451,0.033-0.712,0.033c-0.424,0-1.599,0-2.409,0.032h-2.024
	c-1.312-0.032-2.023,0.882-1.947,1.829c0.062,0.685,0.132,1.6,0.112,2.905c0.003,2.479-0.006,5.091-0.013,7.703
	c0,1.239-0.006,2.446-0.01,3.655c-0.031,1.958-0.048,3.983-0.229,5.123c-0.137,1.597,3.023,2.249,4.322,1.118
	c0.728-0.637,0.51-1.474,0.505-2.306c-0.008-0.96-0.035-2.024-0.034-3.087c-0.001-1.241-0.023-2.415-0.059-3.492h1.185
	c1.764,0,4.717-0.395,6.374-1.137C26.532,18.175,27.381,17.629,28.07,16.783L28.07,16.783z M18.128,17.208h0.326
	c0.228,0,0.462,0.031,0.692,0.031c1.207,0,2.429-0.099,3.536-0.651c1.983-0.916,2.165-3.461,1.919-4.8
	c-0.481-2.61-2.261-3.395-4.25-3.395c-0.555,0-1.066,0.065-2.093,0.163c-0.083,1.306-0.106,2.057-0.14,4.538L18.128,17.208
	L18.128,17.208z M24.542,19.989c1.027,2.852,3.091,5.509,5.586,7.76c0.224,0.201,0.945,0.746,1.686,1.336
	c3.002-2.776,4.883-6.748,4.883-11.159c0-8.394-6.803-15.198-15.196-15.198c-8.393,0-15.198,6.804-15.198,15.198
	c0,8.392,6.805,15.195,15.198,15.195c3.149,0,6.076-0.957,8.501-2.598c-2.993-0.959-5.737-3.311-7.54-5.94
	c-0.898-1.331-1.637-2.704-2.173-3.968C21.71,20.457,23.128,20.242,24.542,19.989z"/>
</svg>
